<?xml version="1.0" standalone="no"?>
<!DOCTYPE svg PUBLIC "-//W3C//DTD SVG 20010904//EN"
 "http://www.w3.org/TR/2001/REC-SVG-20010904/DTD/svg10.dtd">
<svg version="1.0" xmlns="http://www.w3.org/2000/svg"
 width="175.000000pt" height="175.000000pt" viewBox="0 0 175.000000 175.000000"
 preserveAspectRatio="xMidYMid meet">
<metadata>
Created by potrace 1.14, written by Peter Selinger 2001-2017
</metadata>
<g transform="translate(0.000000,175.000000) scale(0.100000,-0.100000)"
fill="#000000" stroke="none">
<path d="M879 1748 c-1 -5 -2 -13 -3 -20 0 -6 -9 -12 -19 -14 -10 -1 -28 -11
-39 -20 -16 -15 -18 -27 -14 -61 5 -45 -6 -62 -29 -43 -11 9 -17 5 -30 -20
-10 -20 -22 -30 -31 -26 -8 3 -14 0 -14 -7 -1 -7 -11 0 -23 14 -29 34 -50 41
-76 23 -25 -18 -26 -38 -6 -78 17 -33 13 -56 -9 -56 -8 0 -16 -6 -19 -12 -3
-10 -9 -9 -23 4 -23 20 -52 18 -69 -5 -10 -14 -14 -13 -36 12 -20 23 -31 27
-58 23 -26 -4 -36 -12 -47 -38 -18 -42 -19 -36 12 -69 25 -27 25 -29 9 -41
-13 -10 -16 -21 -12 -43 5 -24 2 -31 -13 -36 -12 -4 -17 -13 -15 -26 3 -14 0
-19 -9 -16 -8 3 -23 -1 -35 -10 -32 -22 -23 -54 22 -76 34 -17 53 -50 25 -44
-8 1 -12 -6 -10 -17 2 -10 -1 -15 -6 -12 -13 8 -37 -23 -37 -48 0 -13 -7 -21
-16 -21 -21 0 -49 -24 -49 -41 0 -7 -7 -19 -14 -27 -13 -13 -11 -20 15 -56 17
-22 38 -41 48 -41 10 0 17 -9 18 -22 1 -13 11 -29 23 -37 11 -7 20 -19 20 -27
0 -8 6 -11 16 -7 14 5 14 3 3 -16 -8 -11 -17 -21 -21 -21 -19 0 -24 -2 -40
-17 -10 -9 -18 -24 -18 -34 0 -18 38 -52 50 -44 4 2 12 -7 18 -20 7 -14 16
-25 21 -25 6 0 7 -15 4 -35 -4 -28 -2 -35 11 -35 23 0 20 -17 -10 -47 -14 -14
-23 -32 -20 -40 3 -8 6 -21 6 -29 0 -11 13 -21 64 -47 3 -1 21 14 40 32 20 19
36 29 36 23 0 -7 12 -17 27 -23 22 -8 30 -7 39 5 13 18 34 21 34 6 0 -5 9 -10
20 -10 24 0 25 -6 4 -55 -21 -52 -7 -85 36 -85 23 0 33 6 40 25 9 24 30 35 30
15 0 -5 6 -7 13 -5 6 3 21 -8 32 -25 11 -17 23 -26 29 -20 4 4 15 6 22 3 11
-4 13 -17 8 -49 -5 -36 -2 -46 17 -61 12 -10 30 -26 41 -36 23 -22 28 -22 28
2 0 13 5 18 18 14 28 -7 57 33 57 80 0 35 3 42 19 40 10 0 28 9 40 22 31 35
59 40 71 12 15 -32 58 -35 78 -4 15 23 15 28 -3 66 -24 49 -24 51 -2 51 10 0
23 5 30 12 9 9 16 8 29 -4 20 -17 42 -14 61 11 12 14 15 13 36 -11 22 -28 59
-37 71 -18 4 6 10 8 15 5 11 -7 21 9 27 46 3 24 -1 35 -22 53 -24 21 -25 24
-10 36 10 9 15 24 13 41 -3 18 2 30 14 38 10 6 18 18 18 26 0 8 9 15 19 15 11
0 27 10 35 22 19 27 7 51 -33 68 -33 13 -49 40 -25 40 8 0 13 4 10 9 -3 5 5
16 19 25 16 10 23 23 20 36 -3 15 3 24 20 30 13 5 31 23 41 39 10 17 22 31 26
31 4 0 -5 21 -21 47 -17 31 -34 48 -47 48 -14 0 -19 7 -17 28 1 15 -3 27 -8
27 -6 0 -7 5 -4 10 3 6 1 10 -6 10 -14 0 -38 30 -39 47 0 7 16 19 35 27 26 11
35 21 35 38 0 29 -17 48 -42 48 -11 0 -18 7 -18 20 0 11 -7 20 -15 20 -10 0
-14 10 -13 36 1 25 -4 39 -16 46 -16 9 -16 12 8 37 37 39 28 86 -22 107 -35
14 -36 14 -60 -16 l-24 -30 -25 20 c-25 20 -34 19 -64 -7 -14 -12 -17 -12 -23
2 -3 9 -10 14 -15 11 -5 -3 -14 0 -20 7 -8 10 -6 23 8 50 15 29 16 40 7 59
-16 32 -67 32 -81 1 -13 -30 -26 -29 -61 4 -16 15 -38 27 -49 28 -16 1 -20 9
-21 37 0 35 -32 88 -52 88 -6 0 -16 8 -21 18 -6 9 -11 14 -12 10z"/>
</g>
</svg>
